<svg width="1024" height="1024" viewBox="0 0 1024 1024" fill="none" xmlns="http://www.w3.org/2000/svg">
<rect width="1024" height="1024" rx="50" fill="#46C78F"/>
<path d="M393.525 111.5H244.804C241.023 109.232 239.397 115.15 238.889 119.795L379.703 377.476C289.586 546.499 107.914 886.757 102.164 895.604C100.837 905.779 107.877 909.797 111.563 910.534C152.475 911.64 235.294 913.189 239.275 910.534C243.256 907.88 246.094 904.636 247.015 903.346L455.998 511.294C518.472 622.993 647.18 851.699 662.217 872.933C673.717 895.051 711.607 905.373 729.114 907.77H914.324C917.42 910.866 920.406 904.636 921.512 901.134C921.88 872.011 922.396 812.107 921.512 805.471C920.627 798.836 913.771 797.177 910.454 797.177H846.322C818.015 806.024 786.981 782.062 775.002 768.975C656.32 556.268 417.63 129.085 412.322 122.007C410.111 115.371 398.869 112.238 393.525 111.5Z" fill="black"/>
<path d="M238.722 122.007C238.749 121.337 238.803 120.584 238.889 119.795M238.889 119.795C239.397 115.15 241.023 109.232 244.804 111.5C253.207 111.5 347.452 111.5 393.525 111.5C398.869 112.238 410.111 115.371 412.322 122.007C417.63 129.085 656.32 556.268 775.002 768.975C786.981 782.062 818.015 806.024 846.322 797.177C875.071 797.177 901.056 797.177 910.454 797.177C913.771 797.177 920.627 798.836 921.512 805.471C922.396 812.107 921.88 872.011 921.512 901.134C920.406 904.636 917.42 910.866 914.324 907.77C911.228 907.77 789.561 907.77 729.114 907.77C711.607 905.373 673.717 895.051 662.217 872.933C647.179 851.699 518.472 622.993 455.998 511.294L247.015 903.346C246.094 904.636 243.256 907.88 239.275 910.534C235.294 913.189 152.475 911.64 111.563 910.534C107.877 909.797 100.837 905.779 102.164 895.604C107.914 886.757 289.586 546.499 379.703 377.476L238.889 119.795Z" stroke="black"/>
</svg>
